<svg
  version="1.1"
  xmlns="http://www.w3.org/2000/svg"
  xmlns:xlink="http://www.w3.org/1999/xlink"
  viewBox="01 177.53 600 178.94"
  xml:space="preserve">
  <g>
  
    <rect style="fill: #fff;" width="599.38" height="523.11"/>
    <rect style="fill:#494949;" x="11" y="212.59" width="25.97" height="121.88"/>
    <polygon style="fill:#494949;" points="163.06 212.59 63.82 212.59 59.3 212.59 59.3 334.47 85.27 334.47 85.27 238.56 137.44 238.56 137.44 334.47 163.4 334.47 163.4 212.59 163.06 212.59"/>
    <polygon style="fill:#494949;" points="464.22 212.59 364.98 212.59 360.46 212.59 360.46 334.47 386.43 334.47 386.43 238.56 438.6 238.56 438.6 334.47 464.56 334.47 464.56 212.59 464.22 212.59"/>
    <polygon style="fill:#494949;" points="337.79 212.59 238.56 212.59 234.03 212.59 233.99 286.89 259.95 286.89 259.99 238.56 312.16 238.56 312.16 308.5 282.33 308.5 282.33 334.47 338.13 334.47 338.13 212.59 337.79 212.59"/>
    <polygon style="fill:#494949;" points="565.03 285.89 565.03 308.5 512.87 308.5 512.87 238.56 578.02 238.56 578.02 212.59 486.9 212.59 486.9 334.47 512.87 334.47 565.03 334.47 590.66 334.47 591 334.47 591 285.89 565.03 285.89"/>
    <polygon style="fill:#d66c47;" points="257.7 310.33 207.77 310.33 207.77 187.53 180.96 187.53 180.96 336.47 257.7 336.47 257.7 310.33"/>
  </g>
</svg>